/* XPM */
static char *spek[] = {
/* columns rows colors chars-per-pixel */
"32 32 96 2 ",
"   c None",
".  c #EC515D",
"X  c #EE525D",
"o  c #ED505E",
"O  c #ED515E",
"+  c #ED515F",
"@  c #EE515E",
"#  c #F55358",
"$  c #F45458",
"%  c #F45459",
"&  c #F45559",
"*  c #F55858",
"=  c #F55959",
"-  c #F65858",
";  c #F75858",
":  c #F65959",
">  c #F75D59",
",  c #F75D5A",
"<  c #F75E5A",
"1  c #F85D5A",
"2  c #F7635B",
"3  c #F7625C",
"4  c #F7645C",
"5  c #F8635C",
"6  c #F8635D",
"7  c #F8675E",
"8  c #F7685D",
"9  c #F7695D",
"0  c #F8685E",
"q  c #F8685F",
"w  c #F96E5F",
"e  c #FA6E5F",
"r  c #D74A6E",
"t  c #D74B6E",
"y  c #DD4D69",
"u  c #DF4C69",
"i  c #DE4D69",
"p  c #DE4E6A",
"a  c #CF4973",
"s  c #CF4874",
"d  c #CF4974",
"f  c #CF4975",
"g  c #C1457F",
"h  c #C2457F",
"j  c #C84778",
"k  c #C84779",
"l  c #C8477A",
"z  c #C94879",
"x  c #E54F63",
"c  c #E64F63",
"v  c #E64F64",
"b  c #E65063",
"n  c #F97360",
"m  c #F97261",
"M  c #FA7360",
"N  c #FA7361",
"B  c #FA7362",
"V  c #FA7762",
"C  c #F97862",
"Z  c #FA7863",
"A  c #FA7864",
"S  c #FA7964",
"D  c #FB7F64",
"F  c #FA7E65",
"G  c #FB7E65",
"H  c #FB8366",
"J  c #FA8367",
"K  c #FC8768",
"L  c #FC8868",
"P  c #FD8868",
"I  c #FD8D6A",
"U  c #FD8E6A",
"Y  c #FD8F6A",
"T  c #FD946B",
"R  c #FD936C",
"E  c #FD986D",
"W  c #FE986D",
"Q  c #FE9E6F",
"!  c #FD9E70",
"~  c #95399F",
"^  c #9B3B9B",
"/  c #9C3B9B",
"(  c #A33D95",
")  c #AB3F90",
"_  c #9439A0",
"`  c #9539A0",
"'  c #B94385",
"]  c #B94386",
"[  c #B94485",
"{  c #B24289",
"}  c #B1418A",
"|  c #B2418A",
" . c #B3418A",
".. c #AB4091",
"X. c #C14480",
"o. c #C14580",
/* pixels */
"                                                                ",
"                                                                ",
"                        Q Q !                                   ",
"                        E E E                                   ",
"                        R R T                                   ",
"                        Y Y Y                                   ",
"              L L       L L K                                   ",
"              H H       H H H                                   ",
"              G G       G G G       G G                         ",
"    V         Z Z       Z Z A     Z Z Z         A               ",
"  N N N       N N       N N N     N N N       N N               ",
"  w w w       w w       w w w     w w w       w w               ",
"  7 0 0       0 0       0 0 8     8 0 0       0 0               ",
"  5 5 5       5 5       5 5 4     2 5 5       5 5         5 3   ",
"  , , ,       , ,       1 , ,     , , ,       , ,       , , ,   ",
"  : : :       : :       : : :     : : :       : :       : : :   ",
"  & & &       & &       & & &     & & &       & &       & & #   ",
"  @ @ @       @ @       @ @ @     @ @ @       @ @       @ @ @   ",
"  c c c       c c       c c v     b c c       c c         c c   ",
"  y y y       y y       y y y     y y y       y y               ",
"  t t t       t t       t t t     t t t       t t               ",
"  a d d       d d       d d d     d d d       d d               ",
"    k         k k       k k z     k k k         k               ",
"              g g       X.g X.      g g                         ",
"              ' '       [ ' '                                   ",
"               . .       . . .                                  ",
"                        ) ) ..                                  ",
"                        ( ( (                                   ",
"                        / / ^                                   ",
"                        _ _ ~                                   ",
"                                                                ",
"                                                                "
};
